{
  "accessors": [
    {
      "bufferView": 2,
      "componentType": 5126,
      "count": 2998,
      "max": [
        0.3714004158973694,
        0.7215407490730286,
        0.3714004158973694
      ],
      "min": [
        -0.3714004158973694,
        -0.5221815705299377,
        -0.3714004158973694
      ],
      "type": "VEC3"
    },
    {
      "bufferView": 2,
      "byteOffset": 35976,
      "componentType": 5126,
      "count": 2998,
      "max": [
        0.9999958276748657,
        1.0,
        0.9999958276748657
      ],
      "min": [
        -0.9999958276748657,
        -1.0,
        -0.9999958276748657
      ],
      "type": "VEC3"
    },
    {
      "bufferView": 3,
      "componentType": 5126,
      "count": 2998,
      "max": [
        1.0,
        0.41650518774986267,
        1.0,
        1.0
      ],
      "min": [
        -1.0,
        -0.4164799153804779,
        -1.0,
        1.0
      ],
      "type": "VEC4"
    },
    {
      "bufferView": 1,
      "componentType": 5126,
      "count": 2998,
      "max": [
        0.933968186378479,
        0.9956121444702148
      ],
      "min": [
        0.004387855529785156,
        0.004387855529785156
      ],
      "type": "VEC2"
    },
    {
      "bufferView": 1,
      "byteOffset": 23984,
      "componentType": 5126,
      "count": 2998,
      "max": [
        0.933968186378479,
        0.9956121444702148
      ],
      "min": [
        0.004387855529785156,
        0.004387855529785156
      ],
      "type": "VEC2"
    },
    {
      "bufferView": 1,
      "byteOffset": 47968,
      "componentType": 5126,
      "count": 2998,
      "max": [
        0.933968186378479,
        0.9956121444702148
      ],
      "min": [
        0.004387855529785156,
        0.004387855529785156
      ],
      "type": "VEC2"
    },
    {
      "bufferView": 1,
      "byteOffset": 71952,
      "componentType": 5126,
      "count": 2998,
      "max": [
        0.933968186378479,
        0.9956121444702148
      ],
      "min": [
        0.004387855529785156,
        0.004387855529785156
      ],
      "type": "VEC2"
    },
    {
      "bufferView": 0,
      "componentType": 5125,
      "count": 15840,
      "type": "SCALAR"
    }
  ],
  "asset": {
    "extras": {
      "author": "Sousinho (https://sketchfab.com/sousinho)",
      "license": "CC-BY-4.0 (http://creativecommons.org/licenses/by/4.0/)",
      "source": "https://sketchfab.com/3d-models/simple-glass-vase-cdc94f959e2f4b5784b60196a98cc354",
      "title": "Simple Glass Vase"
    },
    "generator": "Sketchfab-13.4.0",
    "version": "2.0"
  },
  "bufferViews": [
    {
      "buffer": 0,
      "byteLength": 63360,
      "name": "floatBufferViews",
      "target": 34963
    },
    {
      "buffer": 0,
      "byteLength": 95936,
      "byteOffset": 63360,
      "byteStride": 8,
      "name": "floatBufferViews",
      "target": 34962
    },
    {
      "buffer": 0,
      "byteLength": 71952,
      "byteOffset": 159296,
      "byteStride": 12,
      "name": "floatBufferViews",
      "target": 34962
    },
    {
      "buffer": 0,
      "byteLength": 47968,
      "byteOffset": 231248,
      "byteStride": 16,
      "name": "floatBufferViews",
      "target": 34962
    }
  ],
  "buffers": [
    {
      "byteLength": 279216,
      "uri": "scene.bin"
    }
  ],
  "images": [
    {
      "uri": "textures/Vase_baseColor.png"
    },
    {
      "uri": "textures/Vase_metallicRoughness.png"
    },
    {
      "uri": "textures/Vase_normal.png"
    }
  ],
  "materials": [
    {
      "alphaMode": "BLEND",
      "doubleSided": true,
      "name": "Vase",
      "normalTexture": {
        "index": 2
      },
      "pbrMetallicRoughness": {
        "baseColorTexture": {
          "index": 0
        },
        "metallicRoughnessTexture": {
          "index": 1
        },
        "roughnessFactor": 0.0
      }
    }
  ],
  "meshes": [
    {
      "name": "Object_0",
      "primitives": [
        {
          "attributes": {
            "NORMAL": 1,
            "POSITION": 0,
            "TANGENT": 2,
            "TEXCOORD_0": 3,
            "TEXCOORD_1": 4,
            "TEXCOORD_2": 5,
            "TEXCOORD_3": 6
          },
          "indices": 7,
          "material": 0,
          "mode": 4
        }
      ]
    }
  ],
  "nodes": [
    {
      "children": [
        1
      ],
      "matrix": [
        1.0,
        0.0,
        0.0,
        0.0,
        0.0,
        2.220446049250313e-16,
        -1.0,
        0.0,
        0.0,
        1.0,
        2.220446049250313e-16,
        0.0,
        0.0,
        0.0,
        0.0,
        1.0
      ],
      "name": "Sketchfab_model"
    },
    {
      "children": [
        2
      ],
      "name": "root"
    },
    {
      "children": [
        3
      ],
      "matrix": [
        1.0,
        0.0,
        0.0,
        0.0,
        0.0,
        2.220446049250313e-16,
        1.0,
        0.0,
        0.0,
        -1.0,
        2.220446049250313e-16,
        0.0,
        0.0,
        0.0,
        0.0,
        1.0
      ],
      "name": "GLTF_SceneRootNode"
    },
    {
      "children": [
        4
      ],
      "matrix": [
        1.0,
        0.0,
        0.0,
        0.0,
        0.0,
        1.0,
        0.0,
        0.0,
        0.0,
        0.0,
        1.0,
        0.0,
        0.0,
        0.4865548014640808,
        0.0,
        1.0
      ],
      "name": "Vert_3"
    },
    {
      "mesh": 0,
      "name": "Object_4"
    }
  ],
  "samplers": [
    {
      "magFilter": 9729,
      "minFilter": 9987,
      "wrapS": 10497,
      "wrapT": 10497
    }
  ],
  "scene": 0,
  "scenes": [
    {
      "name": "Sketchfab_Scene",
      "nodes": [
        0
      ]
    }
  ],
  "textures": [
    {
      "sampler": 0,
      "source": 0
    },
    {
      "sampler": 0,
      "source": 1
    },
    {
      "sampler": 0,
      "source": 2
    }
  ]
}
